<?xml version="1.0" encoding="UTF-8"?>
<svg width="32px" height="32px" viewBox="0 0 32 32" version="1.1" xmlns="http://www.w3.org/2000/svg" xmlns:xlink="http://www.w3.org/1999/xlink">
    <!-- Generator: Sketch 52.3 (67297) - http://www.bohemiancoding.com/sketch -->
    <title>logo</title>
    <desc>Created with Sketch.</desc>
    <g id="web" stroke="none" stroke-width="1" fill="none" fill-rule="evenodd">
        <g id="add-payment_mode" transform="translate(-38.000000, -38.000000)" fill="#FFFFFF" fill-rule="nonzero">
            <g id="bars">
                <g id="logo">
                    <path d="M69,38 L47,38 C46.447,38 46,38.4474335 46,39.0009697 L46,61.9922425 L42,61.9922425 C39.794,61.9922425 38,63.7879821 38,65.9961212 L38,68.9990303 C38,69.5525665 38.447,70 39,70 L57,70 C57.553,70 58,69.5525665 58,68.9990303 L58,65.9961212 C58,64.8920517 58.897,63.9941819 60,63.9941819 C61.103,63.9941819 62,64.8920517 62,65.9961212 C62,68.2042604 63.794,70 66,70 C68.206,70 70,68.2042604 70,65.9961212 L70,39.0009697 C70,38.4484344 69.553,38 69,38 Z M56,65.9961212 L56,67.9980606 L40,67.9980606 L40,65.9961212 C40,64.8920517 40.897,63.9941819 42,63.9941819 L56.537,63.9941819 C56.195,64.583753 56,65.2674153 56,65.9961212 Z M64,57.9883637 L52,57.9883637 L52,55.9864243 L64,55.9864243 L64,57.9883637 Z M64,51.9825456 L52,51.9825456 L52,49.9806062 L64,49.9806062 L64,51.9825456 Z M64,45.9767275 L52,45.9767275 L52,43.9747881 L64,43.9747881 L64,45.9767275 Z"></path>
                </g>
            </g>
        </g>
    </g>
</svg>