<?xml version="1.0"?>
<svg xmlns="http://www.w3.org/2000/svg" height="512px" viewBox="-11 0 512 512" width="512px"><path d="m416.5625 142.664062v-142.664062h-342.589844v142.664062l-73.972656 58.011719v311.324219h490.53125v-311.324219zm34.664062 65.3125-34.664062 27.183594v-54.371094zm-64.664062-177.976562v228.6875l-141.296875 110.808594-141.292969-110.808594v-228.6875zm-312.589844 205.160156-34.667968-27.183594 34.664062-27.1875v54.371094zm-43.972656 246.839844v-243.199219l215.265625 168.820313 215.265625-168.820313v243.199219zm0 0" fill="#FFFFFF"/><path d="m159.300781 85h171.929688v30h-171.929688zm0 0" fill="#FFFFFF"/><path d="m159.300781 144.667969h171.929688v30h-171.929688zm0 0" fill="#FFFFFF"/><path d="m159.300781 204.332031h134.964844v30h-134.964844zm0 0" fill="#FFFFFF"/></svg>
