<?xml version="1.0" encoding="UTF-8"?>
<svg width="22px" height="22px" viewBox="0 0 22 22" version="1.1" xmlns="http://www.w3.org/2000/svg" xmlns:xlink="http://www.w3.org/1999/xlink">
    <!-- Generator: Sketch 52.3 (67297) - http://www.bohemiancoding.com/sketch -->
    <title>plus</title>
    <desc>Created with Sketch.</desc>
    <g id="web" stroke="none" stroke-width="1" fill="none" fill-rule="evenodd">
        <g id="History" transform="translate(-1333.000000, -1113.000000)" fill="#FFFFFF">
            <g id="fab" transform="translate(1308.000000, 1088.000000)">
                <path d="M37.2857143,34.7142857 L45,34.7142857 C45.7100804,34.7142857 46.2857143,35.2899196 46.2857143,36 C46.2857143,36.7100804 45.7100804,37.2857143 45,37.2857143 L37.2857143,37.2857143 L37.2857143,45 C37.2857143,45.7100804 36.7100804,46.2857143 36,46.2857143 C35.2899196,46.2857143 34.7142857,45.7100804 34.7142857,45 L34.7142857,37.2857143 L27,37.2857143 C26.2899196,37.2857143 25.7142857,36.7100804 25.7142857,36 C25.7142857,35.2899196 26.2899196,34.7142857 27,34.7142857 L34.7142857,34.7142857 L34.7142857,27 C34.7142857,26.2899196 35.2899196,25.7142857 36,25.7142857 C36.7100804,25.7142857 37.2857143,26.2899196 37.2857143,27 L37.2857143,34.7142857 Z" id="plus"></path>
            </g>
        </g>
    </g>
</svg>